<svg xmlns="http://www.w3.org/2000/svg" viewBox="0 0 2603 1084"><defs><style>.cls-1{fill:#141414;}.cls-2{font-size:250px;font-family:LEMONMILK-Regular, LEMON MILK;}.cls-2,.cls-4{fill:#f4d3ab;}.cls-3{fill:#684d1c;}.cls-5{fill:#ffce85;}</style></defs><g id="Capa_2" data-name="Capa 2"><circle class="cls-1" cx="540" cy="540" r="540"/></g><g id="Capa_3" data-name="Capa 3"><rect class="cls-1" width="2603" height="1084"/><text class="cls-2" transform="translate(695.67 629.78)">KAPSU<tspan class="cls-3" x="850.59" y="0">MANIA</tspan></text></g><g id="Capa_1" data-name="Capa 1"><path class="cls-4" d="M550.92,987.87s194.39-154.29,74.89-322.6c-108-136.84-249.64-170.9-174.75-295.72,34-48.67,78.16-99.85,78.16-99.85s-392.12,83.53-153,322.6C387.51,603.64,513.6,728.89,558.6,801.61,602.76,882.26,550.92,987.87,550.92,987.87Z"/><path class="cls-5" d="M781.35,461.73"/><path class="cls-5" d="M475.38,332.89"/><path class="cls-5" d="M358.52,486.62"/><path class="cls-5" d="M438.73,393.8"/><path class="cls-5" d="M449.38,425.11"/><path class="cls-3" d="M610.44,588.46s-59.27-71.85-28.8-163.22c12.1-36.27,51-80.57,94.09-117.13C833.19,171.77,656.53,93,656.53,93s29.62,46.09-5.76,111.37C589.38,285,585.89,281.25,528.83,340.75,403.06,473.25,610.44,588.46,610.44,588.46Z"/></g></svg>